# xmcd CD database file
#
# Track frame offsets:
#	150
#	35625
#	100650
#	124875
#	152475
#	198975
#
# Disc length: 3475 seconds
#
# Revision: 0
# Processed by: cddbd v1.5.1PL0 Copyright (c) Steve Scherf et al.
# Submitted via: CDex 1.51
#
DISCID=460d9106
DTITLE=Franco Donatoni - Portrait - Ensemble Fa - Dominique My
DYEAR=2001
DGENRE=Contemporary music
TTITLE0=Refrain III
TTITLE1=Etwas Ruhiger im Ausdruck
TTITLE2=Lumen
TTITLE3=For Grilly
TTITLE4=Spiri
TTITLE5=Le Ruisseau sur l'escalier
EXTD=YEAR: 2001
EXTT0=
EXTT1=
EXTT2=
EXTT3=
EXTT4=
EXTT5=
PLAYORDER=
